<mxfile host="app.diagrams.net" modified="2020-09-24T16:19:50.633Z" agent="5.0 (X11)" etag="rL0wc0gvjdNi2pKpm-6y" version="13.5.9" type="github">
  <diagram id="PlvVa8N38BHqR0ybgqa-" name="Page-1">
    <mxGraphModel dx="1048" dy="624" grid="1" gridSize="10" guides="1" tooltips="1" connect="1" arrows="1" fold="1" page="1" pageScale="1" pageWidth="850" pageHeight="1100" math="0" shadow="0">
      <root>
        <mxCell id="0" />
        <mxCell id="1" parent="0" />
        <mxCell id="gU69Mb2nTEnhVt7K2t2j-3" value="" style="ellipse;whiteSpace=wrap;html=1;" vertex="1" parent="1">
          <mxGeometry x="40" y="20" width="120" height="80" as="geometry" />
        </mxCell>
      </root>
    </mxGraphModel>
  </diagram>
</mxfile>
